<svg width="1508" height="730" fill="none" xmlns="http://www.w3.org/2000/svg"><path opacity=".3" d="M1506.33 1c-46.99 218.015-91.77 401.508-189.13 441.028-97.35 39.52-170.33-69.547-239.86-51.157-69.53 18.389-88.532 82.434-97.185 140.299-8.653 57.866-26.446 171.759-110.707 194.044-84.262 22.286-154.201-75.289-187.45-115.187-33.249-39.898-114.86-119.631-193.819-98.748-78.959 20.883-88.475 80.25-165.083 93.337-76.607 13.086-124.692-61.454-202.472-40.882-77.78 20.571-47.104 79.347-119.58 98.516" stroke="url(#paint0_linear_70_3296)" stroke-width="2" stroke-linecap="round" stroke-linejoin="round"/><defs><linearGradient id="paint0_linear_70_3296" x1="1564.57" y1="221.196" x2="-10.341" y2="619.699" gradientUnits="userSpaceOnUse"><stop stop-color="#60F"/><stop offset="1" stop-color="#8000FF"/></linearGradient></defs></svg>