<svg width="288" height="20" fill="none" xmlns="http://www.w3.org/2000/svg"><path d="M10 20V4H4c-1.125 0-2.073-.385-2.844-1.156A3.933 3.933 0 010 0h24c0 1.125-.396 2.073-1.188 2.844C22.021 3.614 21.084 4 20 4h-6v16h-4zm22 0c-1.125 0-2.073-.385-2.844-1.156A3.933 3.933 0 0128 16h24c0 1.125-.396 2.073-1.188 2.844C50.022 19.614 49.084 20 48 20H32zm0-8c-1.125 0-2.073-.385-2.844-1.156A3.933 3.933 0 0128 8h24c0 1.125-.396 2.073-1.188 2.844C50.022 11.614 49.084 12 48 12H32zm0-8c-1.125 0-2.073-.385-2.844-1.156A3.933 3.933 0 0128 0h24c0 1.125-.396 2.073-1.188 2.844C50.022 3.614 49.084 4 48 4H32zm24 16c0-1.104.385-2.042 1.156-2.813C57.948 16.396 58.896 16 60 16h16v-4H56V0h24c0 1.125-.396 2.073-1.188 2.844C78.022 3.614 77.084 4 76 4H60v4h20v12H56zm28 0V0h4v16h20c0 1.125-.396 2.073-1.188 2.844-.791.77-1.729 1.156-2.812 1.156H84zm28 0V8h24v12h-4v-8h-16v8h-4zm4-16c-1.125 0-2.073-.385-2.844-1.156A3.932 3.932 0 01112 0h24c0 1.125-.396 2.073-1.188 2.844C134.021 3.614 133.083 4 132 4h-16zm56 12v-2a1.92 1.92 0 00-.594-1.406A1.921 1.921 0 00170 12h-14v4h16zm-20 4V8h18a1.975 1.975 0 002-2V4h-20V0h24v8a1.975 1.975 0 01-2 2c.542 0 1.01.198 1.406.594.396.396.594.864.594 1.406v8h-24zm28 0V0h4v16h20c0 1.125-.396 2.073-1.188 2.844-.791.77-1.729 1.156-2.812 1.156h-20zm28 0V8h24v12h-4v-8h-16v8h-4zm4-16c-1.125 0-2.073-.385-2.844-1.156A3.932 3.932 0 01208 0h24c0 1.125-.396 2.073-1.188 2.844C230.021 3.614 229.083 4 228 4h-16zm28 16c-1.125 0-2.073-.385-2.844-1.156A3.932 3.932 0 01236 16V8h4v6c0 .563.188 1.042.562 1.438A2.02 2.02 0 00242 16h18c0 1.125-.396 2.073-1.188 2.844-.791.77-1.729 1.156-2.812 1.156h-16zm-4-16V0h24c0 1.125-.396 2.073-1.188 2.844C258.021 3.614 257.083 4 256 4h-20zm28 16V0h4v20h-4zm18 0l-10-10 10-10h6l-8 8h-.031L278 10l10 10h-6z" fill="#fff"/></svg>