<svg width="12" height="10" fill="none" xmlns="http://www.w3.org/2000/svg"><path d="M3.712 8.105L1.21 5.322a.705.705 0 00-.23-.172.643.643 0 00-.542 0 .705.705 0 00-.229.172.793.793 0 00-.155.255.86.86 0 000 .603.792.792 0 00.155.255l2.996 3.332c.278.31.729.31 1.008 0l7.578-8.421a.791.791 0 00.155-.255.859.859 0 000-.603.791.791 0 00-.155-.255.704.704 0 00-.23-.173.643.643 0 00-.542 0 .705.705 0 00-.229.173L3.712 8.105z" fill="url(#paint0_linear_86_13248)"/><defs><linearGradient id="paint0_linear_86_13248" x1="0" y1="5.761" x2="12.002" y2="5.812" gradientUnits="userSpaceOnUse"><stop stop-color="#60F"/><stop offset="1" stop-color="#8000FF"/></linearGradient></defs></svg>