<svg width="180" height="13" fill="none" xmlns="http://www.w3.org/2000/svg"><path opacity=".2" d="M6.25 13V3H2.5c-.703 0-1.296-.24-1.777-.723A2.458 2.458 0 010 .5h15a2.38 2.38 0 01-.742 1.777A2.435 2.435 0 0112.5 3H8.75v10h-2.5zM20 13c-.703 0-1.296-.24-1.777-.723A2.458 2.458 0 0117.5 10.5h15a2.38 2.38 0 01-.742 1.777A2.435 2.435 0 0130 13H20zm0-5c-.703 0-1.296-.24-1.777-.723A2.458 2.458 0 0117.5 5.5h15a2.38 2.38 0 01-.742 1.777A2.435 2.435 0 0130 8H20zm0-5c-.703 0-1.296-.24-1.777-.723A2.458 2.458 0 0117.5.5h15a2.38 2.38 0 01-.742 1.777A2.435 2.435 0 0130 3H20zm15 10c0-.69.24-1.276.723-1.758A2.425 2.425 0 0137.5 10.5h10V8H35V.5h15a2.38 2.38 0 01-.742 1.777A2.435 2.435 0 0147.5 3h-10v2.5H50V13H35zm17.5 0V.5H55v10h12.5a2.38 2.38 0 01-.742 1.777A2.435 2.435 0 0165 13H52.5zM70 13V5.5h15V13h-2.5V8h-10v5H70zm2.5-10c-.703 0-1.296-.24-1.777-.723A2.458 2.458 0 0170 .5h15a2.38 2.38 0 01-.742 1.777A2.435 2.435 0 0182.5 3h-10zm35 7.5V9.25c0-.339-.124-.632-.371-.879A1.2 1.2 0 00106.25 8H97.5v2.5h10zM95 13V5.5h11.25a1.234 1.234 0 001.25-1.25V3H95V.5h15v5a1.234 1.234 0 01-1.25 1.25 1.2 1.2 0 01.879.371c.247.247.371.54.371.879v5H95zm17.5 0V.5h2.5v10h12.5a2.38 2.38 0 01-.742 1.777A2.436 2.436 0 01125 13h-12.5zm17.5 0V5.5h15V13h-2.5V8h-10v5H130zm2.5-10c-.703 0-1.296-.24-1.777-.723A2.457 2.457 0 01130 .5h15a2.38 2.38 0 01-.742 1.777A2.436 2.436 0 01142.5 3h-10zM150 13c-.703 0-1.296-.24-1.777-.723a2.457 2.457 0 01-.723-1.777v-5h2.5v3.75c0 .352.117.651.352.898.247.235.546.352.898.352h11.25a2.38 2.38 0 01-.742 1.777A2.436 2.436 0 01160 13h-10zm-2.5-10V.5h15a2.38 2.38 0 01-.742 1.777A2.436 2.436 0 01160 3h-12.5zM165 13V.5h2.5V13H165zm11.25 0L170 6.75 176.25.5H180l-5 5h-.02l-1.23 1.25L180 13h-3.75z" fill="#fff"/></svg>